<svg width="179" height="152" viewBox="0 0 179 152" fill="none" xmlns="http://www.w3.org/2000/svg">
<g filter="url(#filter0_d_3_770)">
<path d="M40 83.4439C40 68.404 52.7376 52.9606 67.0008 40.7082C68.0407 39.8148 69.5565 39.7651 70.6677 40.5681L86.0465 51.6814L110.221 55.0845C126.115 55.0845 139 67.7814 139 83.4439C139 99.1063 126.115 111.803 110.221 111.803H68.7791C52.8848 111.803 40 99.1063 40 83.4439Z" fill="white"/>
<path d="M54.9176 83.4139C54.9176 72.4787 63.7824 63.6139 74.7176 63.6139H109.918C120.853 63.6139 129.718 72.4787 129.718 83.4139C129.718 94.3491 120.853 103.214 109.918 103.214H74.7176C63.7824 103.214 54.9176 94.3491 54.9176 83.4139Z" fill="#001526"/>
<g filter="url(#filter1_d_3_770)">
<mask id="mask0_3_770" style="mask-type:alpha" maskUnits="userSpaceOnUse" x="54" y="63" width="76" height="41">
<path d="M54.9188 83.4139C54.9188 72.4787 63.7836 63.6139 74.7188 63.6139H109.919C120.854 63.6139 129.719 72.4787 129.719 83.4139C129.719 94.3491 120.854 103.214 109.919 103.214H74.7188C63.7836 103.214 54.9188 94.3491 54.9188 83.4139Z" fill="black"/>
</mask>
<g mask="url(#mask0_3_770)">
<g filter="url(#filter2_f_3_770)">
<ellipse cx="82.721" cy="103.621" rx="26.4452" ry="14.2397" fill="#50ACF8" fill-opacity="0.75"/>
</g>
</g>
</g>
<mask id="mask1_3_770" style="mask-type:alpha" maskUnits="userSpaceOnUse" x="39" y="41" width="100" height="73">
<path d="M39.9999 84.8004C39.9999 69.7606 52.7375 54.3172 67.0006 42.0647C68.0406 41.1714 69.5564 41.1216 70.6676 41.9246L86.0464 53.0379L110.221 56.4411C126.115 56.4411 139 69.138 139 84.8004C139 100.463 126.115 113.16 110.221 113.16H68.779C52.8847 113.16 39.9999 100.463 39.9999 84.8004Z" fill="white"/>
</mask>
<g mask="url(#mask1_3_770)">
<g filter="url(#filter3_f_3_770)">
<ellipse cx="57.4523" cy="46.1658" rx="3.39041" ry="8.13699" transform="rotate(41.9377 57.4523 46.1658)" fill="#50ACF8" fill-opacity="0.8"/>
</g>
<g filter="url(#filter4_f_3_770)">
<ellipse cx="81.2593" cy="53.0027" rx="2.03425" ry="8.13699" transform="rotate(-47.2382 81.2593 53.0027)" fill="#50ACF8"/>
</g>
</g>
<path d="M107.808 81.2443L102.457 84.4553C101.809 84.8437 101.809 85.7818 102.457 86.1702L107.808 89.3812" stroke="white" stroke-width="4" stroke-linecap="round"/>
<path d="M80.6848 81.2443L80.6848 89.3812" stroke="white" stroke-width="4" stroke-linecap="round"/>
</g>
<g filter="url(#filter5_f_3_770)">
<ellipse cx="90.6249" cy="131.003" rx="24.2118" ry="4.84237" fill="#DEDEDE" fill-opacity="0.8"/>
</g>
<defs>
<filter id="filter0_d_3_770" x="0" y="0" width="179" height="151.803" filterUnits="userSpaceOnUse" color-interpolation-filters="sRGB">
<feFlood flood-opacity="0" result="BackgroundImageFix"/>
<feColorMatrix in="SourceAlpha" type="matrix" values="0 0 0 0 0 0 0 0 0 0 0 0 0 0 0 0 0 0 127 0" result="hardAlpha"/>
<feOffset/>
<feGaussianBlur stdDeviation="20"/>
<feComposite in2="hardAlpha" operator="out"/>
<feColorMatrix type="matrix" values="0 0 0 0 0.032 0 0 0 0 0.1244 0 0 0 0 0.2 0 0 0 0.14 0"/>
<feBlend mode="normal" in2="BackgroundImageFix" result="effect1_dropShadow_3_770"/>
<feBlend mode="normal" in="SourceGraphic" in2="effect1_dropShadow_3_770" result="shape"/>
</filter>
<filter id="filter1_d_3_770" x="52.2758" y="85.3815" width="60.8904" height="21.8324" filterUnits="userSpaceOnUse" color-interpolation-filters="sRGB">
<feFlood flood-opacity="0" result="BackgroundImageFix"/>
<feColorMatrix in="SourceAlpha" type="matrix" values="0 0 0 0 0 0 0 0 0 0 0 0 0 0 0 0 0 0 127 0" result="hardAlpha"/>
<feOffset/>
<feGaussianBlur stdDeviation="2"/>
<feComposite in2="hardAlpha" operator="out"/>
<feColorMatrix type="matrix" values="0 0 0 0 0 0 0 0 0 0 0 0 0 0 0 0 0 0 0.8 0"/>
<feBlend mode="normal" in2="BackgroundImageFix" result="effect1_dropShadow_3_770"/>
<feBlend mode="normal" in="SourceGraphic" in2="effect1_dropShadow_3_770" result="shape"/>
</filter>
<filter id="filter2_f_3_770" x="36.2758" y="69.3815" width="92.8904" height="68.4795" filterUnits="userSpaceOnUse" color-interpolation-filters="sRGB">
<feFlood flood-opacity="0" result="BackgroundImageFix"/>
<feBlend mode="normal" in="SourceGraphic" in2="BackgroundImageFix" result="shape"/>
<feGaussianBlur stdDeviation="10" result="effect1_foregroundBlur_3_770"/>
</filter>
<filter id="filter3_f_3_770" x="31.4564" y="19.7009" width="51.9919" height="52.9297" filterUnits="userSpaceOnUse" color-interpolation-filters="sRGB">
<feFlood flood-opacity="0" result="BackgroundImageFix"/>
<feBlend mode="normal" in="SourceGraphic" in2="BackgroundImageFix" result="shape"/>
<feGaussianBlur stdDeviation="10" result="effect1_foregroundBlur_3_770"/>
</filter>
<filter id="filter4_f_3_770" x="55.1263" y="27.2783" width="52.2659" height="51.4487" filterUnits="userSpaceOnUse" color-interpolation-filters="sRGB">
<feFlood flood-opacity="0" result="BackgroundImageFix"/>
<feBlend mode="normal" in="SourceGraphic" in2="BackgroundImageFix" result="shape"/>
<feGaussianBlur stdDeviation="10" result="effect1_foregroundBlur_3_770"/>
</filter>
<filter id="filter5_f_3_770" x="56.4131" y="116.16" width="68.4237" height="29.6847" filterUnits="userSpaceOnUse" color-interpolation-filters="sRGB">
<feFlood flood-opacity="0" result="BackgroundImageFix"/>
<feBlend mode="normal" in="SourceGraphic" in2="BackgroundImageFix" result="shape"/>
<feGaussianBlur stdDeviation="5" result="effect1_foregroundBlur_3_770"/>
</filter>
</defs>
</svg>
