<svg width="101" height="15" viewBox="0 0 101 15" fill="none" xmlns="http://www.w3.org/2000/svg">
<path d="M15.117 0.100342C15.7243 0.100593 16.2166 0.592593 16.2166 1.19995V1.25854C16.2166 1.8659 15.7243 2.35888 15.117 2.35913H6.8299C5.90006 2.35918 5.10374 2.58796 4.43634 3.04175H4.43536C3.77872 3.48402 3.26854 4.08793 2.90509 4.85522C2.54146 5.623 2.35919 6.47332 2.35919 7.40698C2.35923 8.34041 2.54158 9.19015 2.90509 9.95776L3.04865 10.2332C3.39869 10.8598 3.8611 11.3719 4.43634 11.7712L4.6922 11.9314C5.30451 12.2793 6.01617 12.4538 6.8299 12.4539H15.117C15.7243 12.4541 16.2166 12.9471 16.2166 13.5544V13.613C16.2166 14.2204 15.7243 14.7134 15.117 14.7136H6.8299C5.81537 14.7136 4.89455 14.5255 4.07013 14.1482C3.24801 13.7719 2.53671 13.2489 1.93732 12.5798L1.93634 12.5789C1.42457 11.9939 1.01457 11.3292 0.705872 10.5857L0.579895 10.2615C0.26003 9.37142 0.100437 8.41962 0.100403 7.40698C0.100403 6.4078 0.259875 5.46911 0.579895 4.59253C0.899544 3.7033 1.35119 2.92339 1.93634 2.25464C2.53578 1.57156 3.24749 1.04131 4.07013 0.664795C4.89455 0.287517 5.81537 0.100377 6.8299 0.100342H15.117ZM19.8221 3.18823C20.4295 3.18838 20.9217 3.6814 20.9217 4.28882V13.613C20.9217 14.2205 20.4295 14.7135 19.8221 14.7136H19.7625C19.1551 14.7135 18.6629 14.2205 18.6629 13.613V4.28882C18.6629 3.68139 19.1551 3.18836 19.7625 3.18823H19.8221ZM29.6639 3.18823C30.2714 3.18823 30.7645 3.68131 30.7645 4.28882V13.613C30.7645 14.2206 30.2714 14.7136 29.6639 14.7136H29.6053C28.9978 14.7136 28.5047 14.2206 28.5047 13.613V10.1013H21.6893V7.84155H28.5047V4.28882C28.5047 3.68131 28.9978 3.18823 29.6053 3.18823H29.6639ZM45.9861 3.14722C46.5935 3.14737 47.0858 3.64038 47.0858 4.2478V13.613C47.0858 14.2205 46.5935 14.7135 45.9861 14.7136H45.9266C45.3192 14.7135 44.827 14.2205 44.827 13.613V11.6042H37.9998C37.3925 11.6042 36.8995 11.1119 36.8992 10.5046V10.4041C36.8992 9.79654 37.3923 9.30347 37.9998 9.30347H44.827V5.42749H39.5731C38.9177 5.42752 38.3245 5.58737 37.7918 5.90698C37.257 6.22794 36.8295 6.65534 36.5086 7.19019L36.5076 7.19116C36.1886 7.70963 36.0291 8.29548 36.0291 8.95093V13.613C36.0291 14.2206 35.536 14.7136 34.9285 14.7136H34.8494C34.2419 14.7136 33.7488 14.2206 33.7488 13.613V8.95093C33.7488 8.15589 33.8956 7.40797 34.1893 6.70874V6.70776C34.4961 5.99657 34.9153 5.37529 35.4461 4.84448L35.4471 4.84351C35.9911 4.31347 36.6119 3.90126 37.3094 3.60815C38.0223 3.30064 38.7774 3.14724 39.5731 3.14722H45.9861ZM61.0672 3.18823C61.6747 3.18824 62.1668 3.68131 62.1668 4.28882V4.3269C62.1668 4.93441 61.6747 5.42748 61.0672 5.42749H56.7313V13.613C56.7313 14.2204 56.239 14.7134 55.6317 14.7136H55.5721C54.9646 14.7136 54.4725 14.2205 54.4725 13.613V5.42749H50.116C49.5085 5.42749 49.0154 4.93442 49.0154 4.3269V4.28882C49.0154 3.68131 49.5085 3.18823 50.116 3.18823H61.0672Z" fill="#9FCAED" stroke="#9FCAED" stroke-width="0.2"/>
<path d="M65.5014 0.100342C66.1089 0.100342 66.602 0.592438 66.602 1.19995V8.03589L77.52 0.280029C77.6853 0.162654 77.8836 0.100342 78.0864 0.100342C79.0357 0.10066 79.427 1.31718 78.6557 1.87085L72.7905 6.07983L79.5952 12.8679C80.2771 13.5482 79.7957 14.7135 78.8325 14.7136C78.5444 14.7136 78.2678 14.5979 78.0649 14.3933L71.062 7.33081L66.602 10.5457V13.613C66.602 14.2206 66.1089 14.7136 65.5014 14.7136H65.4428C64.8353 14.7136 64.3432 14.2206 64.3432 13.613V1.19995C64.3432 0.592438 64.8353 0.100342 65.4428 0.100342H65.5014ZM94.0229 0.100342C94.795 0.100355 95.4993 0.289385 96.1333 0.669678H96.1323C96.7782 1.04878 97.2912 1.562 97.6704 2.20776L97.8042 2.44897C98.0953 3.01904 98.2407 3.6425 98.2407 4.31812C98.2407 4.75334 98.1777 5.17501 98.0512 5.58276V5.58374C97.9379 5.93645 97.7811 6.26513 97.5883 6.573C98.3657 6.86147 99.0042 7.35247 99.4995 8.04858H99.4985C100.033 8.7659 100.3 9.58233 100.3 10.4949C100.3 11.2671 100.11 11.9784 99.7299 12.6257V12.6267C99.3507 13.2587 98.8371 13.7635 98.1919 14.1423C97.5579 14.5227 96.8537 14.7136 96.0815 14.7136H87.3217C86.7143 14.7135 86.2221 14.2205 86.2221 13.613V13.5544C86.2221 12.947 86.7143 12.454 87.3217 12.4539H96.0815C96.6178 12.4539 97.0733 12.2658 97.4526 11.8865C97.8464 11.4927 98.0405 11.0301 98.0405 10.4949C98.0404 9.95987 97.8462 9.50526 97.4536 9.12573L97.4516 9.12378C97.072 8.73107 96.6167 8.53589 96.0815 8.53589H87.3217C86.7144 8.53578 86.2222 8.04368 86.2221 7.43628V7.37671C86.2224 6.76946 86.7145 6.27721 87.3217 6.2771H94.0229C94.559 6.27708 95.0138 6.08875 95.393 5.70972C95.7868 5.31594 95.9819 4.85337 95.9819 4.31812C95.9819 3.7831 95.7875 3.32853 95.395 2.94897L95.3921 2.94604C95.0125 2.5535 94.558 2.35915 94.0229 2.35913H85.3921V13.613C85.3921 14.2205 84.9 14.7136 84.2924 14.7136H84.2339C83.6263 14.7136 83.1333 14.2206 83.1333 13.613V1.19995C83.1333 0.592438 83.6263 0.100342 84.2339 0.100342H94.0229Z" fill="#1072C3" stroke="#1072C3" stroke-width="0.2"/>
</svg>
