<svg width="24" height="24" viewBox="0 0 24 24" fill="none" xmlns="http://www.w3.org/2000/svg">
<path d="M11.265 7C11.265 6.71875 11.3614 6.48177 11.5541 6.28906C11.7468 6.09635 11.9838 6 12.265 6C12.5463 6 12.7832 6.09635 12.976 6.28906C13.1687 6.48177 13.265 6.71875 13.265 7C13.265 7.28125 13.1687 7.51823 12.976 7.71094C12.7832 7.90365 12.5463 8 12.265 8C11.9838 8 11.7468 7.90365 11.5541 7.71094C11.3614 7.51823 11.265 7.28125 11.265 7ZM12.265 11C11.9838 11 11.7468 11.0964 11.5541 11.2891C11.3614 11.4818 11.265 11.7188 11.265 12C11.265 12.2812 11.3614 12.5182 11.5541 12.7109C11.7468 12.9036 11.9838 13 12.265 13C12.5463 13 12.7832 12.9036 12.976 12.7109C13.1687 12.5182 13.265 12.2812 13.265 12C13.265 11.7188 13.1687 11.4818 12.976 11.2891C12.7832 11.0964 12.5463 11 12.265 11ZM12.265 16C11.9838 16 11.7468 16.0964 11.5541 16.2891C11.3614 16.4818 11.265 16.7188 11.265 17C11.265 17.2812 11.3614 17.5182 11.5541 17.7109C11.7468 17.9036 11.9838 18 12.265 18C12.5463 18 12.7832 17.9036 12.976 17.7109C13.1687 17.5182 13.265 17.2812 13.265 17C13.265 16.7188 13.1687 16.4818 12.976 16.2891C12.7832 16.0964 12.5463 16 12.265 16Z" fill="black" fill-opacity="0.9"/>
</svg>
