<svg width="24" height="24" viewBox="0 0 24 24" fill="none" xmlns="http://www.w3.org/2000/svg">
<path d="M20 14.8244C19.7299 15.5636 19.3689 16.2705 18.9216 16.9273C17.6703 18.7649 15.8242 20.0916 13.7091 20.6735C11.5941 21.2553 9.34591 21.0549 7.36132 20.1075C7.0356 19.9811 6.68168 19.9508 6.33993 20.0201L3.16795 20.9682C3.01493 21.0097 2.85408 21.0106 2.70065 20.9707C2.54722 20.9309 2.40629 20.8516 2.29123 20.7405C2.17617 20.6293 2.09079 20.49 2.04319 20.3357C1.99558 20.1813 1.98734 20.0171 2.01923 19.8586L3.00902 16.7331C3.08874 16.363 3.05832 15.9769 2.92166 15.6245C1.97069 13.6076 1.74716 11.3122 2.29051 9.14331C2.83386 6.97439 4.10918 5.07132 5.89145 3.76987C7.67372 2.46842 9.8484 1.85223 12.0318 2.03001C13.0675 2.11434 14.0735 2.37473 15.0114 2.79311C15.496 3.00934 15.9625 3.26777 16.4054 3.56591" stroke="#1A2025" stroke-width="2" stroke-linecap="round" stroke-linejoin="round"/>
<path d="M17 8H23" stroke="#1A2025" stroke-width="2" stroke-linecap="round" stroke-linejoin="round"/>
<path d="M20 5V11" stroke="#1A2025" stroke-width="2" stroke-linecap="round" stroke-linejoin="round"/>
</svg>
