<svg width="32" height="32" viewBox="0 0 32 32" fill="none" xmlns="http://www.w3.org/2000/svg">
<path d="M21.8857 18.8931C21.6773 19.4633 21.3988 20.0087 21.0538 20.5153C20.0885 21.9329 18.6644 22.9564 17.0328 23.4052C15.4011 23.8541 13.6668 23.6995 12.1359 22.9687C11.8846 22.8712 11.6116 22.8478 11.3479 22.9012L8.90099 23.6326C8.78295 23.6646 8.65886 23.6653 8.5405 23.6346C8.42214 23.6038 8.31342 23.5427 8.22466 23.4569C8.1359 23.3712 8.07004 23.2637 8.03331 23.1447C7.99659 23.0256 7.99023 22.8989 8.01483 22.7767L8.77839 20.3656C8.83988 20.08 8.81641 19.7822 8.71099 19.5103C7.97739 17.9545 7.80495 16.1837 8.22411 14.5106C8.64326 12.8374 9.62708 11.3693 11.002 10.3653C12.3769 9.36135 14.0545 8.886 15.7388 9.02315C16.5378 9.0882 17.3139 9.28908 18.0373 9.61183C18.4112 9.77863 18.7711 9.978 19.1127 10.208" stroke="#121F2B" stroke-opacity="0.7" stroke-width="1.4" stroke-linecap="round" stroke-linejoin="round"/>
<path d="M19.5714 13.6285H24.2" stroke="#121F2B" stroke-opacity="0.7" stroke-width="1.4" stroke-linecap="round" stroke-linejoin="round"/>
<path d="M21.8857 11.3143V15.9429" stroke="#121F2B" stroke-opacity="0.7" stroke-width="1.4" stroke-linecap="round" stroke-linejoin="round"/>
</svg>
