<svg width="24" height="24" viewBox="0 0 24 24" fill="none" xmlns="http://www.w3.org/2000/svg">
<path d="M2.89252 17.9074C3.02486 18.2412 3.05432 18.607 2.97712 18.9577L2.01862 21.9187C1.98774 22.0689 1.99572 22.2244 2.04182 22.3706C2.08792 22.5168 2.1706 22.6488 2.28202 22.7541C2.39345 22.8594 2.52992 22.9345 2.6785 22.9723C2.82708 23.01 2.98285 23.0092 3.13102 22.9699L6.20272 22.0717C6.53366 22.0061 6.87639 22.0347 7.19182 22.1545C9.11366 23.052 11.2907 23.2419 13.3389 22.6906C15.3871 22.1394 17.1748 20.8825 18.3866 19.1416C19.5984 17.4008 20.1564 15.2879 19.9622 13.1758C19.7679 11.0636 18.8339 9.08792 17.325 7.59728C15.816 6.10665 13.829 5.19686 11.7147 5.02843C9.60027 4.86 7.49434 5.44376 5.76842 6.67672C4.04249 7.90967 2.8075 9.71258 2.28133 11.7673C1.75515 13.8221 1.97161 15.9967 2.89252 17.9074Z" fill="#B6DCFA"/>
<path d="M20 14.8244C19.7299 15.5636 19.3689 16.2705 18.9216 16.9273C17.6703 18.7649 15.8242 20.0916 13.7091 20.6735C11.5941 21.2553 9.34591 21.0549 7.36132 20.1075C7.0356 19.9811 6.68168 19.9508 6.33993 20.0201L3.16795 20.9682C3.01493 21.0097 2.85408 21.0106 2.70065 20.9707C2.54722 20.9309 2.40629 20.8516 2.29123 20.7405C2.17617 20.6293 2.09079 20.49 2.04319 20.3357C1.99558 20.1813 1.98734 20.0171 2.01923 19.8586L3.00902 16.7331C3.08874 16.363 3.05832 15.9769 2.92166 15.6245C1.97069 13.6076 1.74716 11.3122 2.29051 9.14331C2.83386 6.97439 4.10918 5.07132 5.89145 3.76987C7.67372 2.46842 9.8484 1.85223 12.0318 2.03001C13.0675 2.11434 14.0735 2.37473 15.0114 2.79311C15.496 3.00934 15.9625 3.26777 16.4054 3.56591" stroke="#1072C3" stroke-width="2" stroke-linecap="round" stroke-linejoin="round"/>
<path d="M17 8H23" stroke="#1072C3" stroke-width="2" stroke-linecap="round" stroke-linejoin="round"/>
<path d="M20 5V11" stroke="#1072C3" stroke-width="2" stroke-linecap="round" stroke-linejoin="round"/>
</svg>
